<svg width="2400" height="1350" viewBox="0 0 2400 1350" fill="none" xmlns="http://www.w3.org/2000/svg">
<g id="diagram-swap">
<g id="Group 18">
<g id="blog-e">
<rect width="2400" height="1350" fill="#F3F3F3"/>
<path id="Swap via DEX" d="M131.208 164.936C126.096 164.936 121.92 163.136 119.688 161.624C118.896 161.048 118.464 160.544 118.32 159.464C117.816 156.512 117.312 152.048 117.312 150.536C117.312 149.744 117.528 149.312 118.176 149.312C118.896 149.312 119.112 149.744 119.328 150.392C121.056 156.44 124.8 161.552 131.352 161.552C136.536 161.552 139.92 157.952 139.92 153.272C139.92 149.168 137.904 146.792 134.016 144.344C130.56 142.328 129.84 141.896 126.672 139.952C120.696 136.28 118.032 131.6 118.032 126.056C118.032 117.92 124.368 112.448 133.8 112.448C137.472 112.448 141.072 113.312 143.088 114.032C144.168 114.392 144.528 114.824 144.672 115.76C145.248 118.496 146.184 124.184 146.184 125.696C146.184 126.416 145.896 126.776 145.176 126.776C144.6 126.776 144.24 126.488 144.024 125.768C141.792 119.864 138.264 115.688 132.936 115.688C127.896 115.688 124.872 119.144 124.872 123.536C124.872 126.92 126.6 129.872 130.776 132.464C133.728 134.408 134.736 134.984 138.048 137.072C144.024 140.816 146.904 144.704 146.904 150.896C146.904 158.888 140.784 164.936 131.208 164.936ZM193.867 135.056L185.227 163.352C185.083 164.072 184.651 164.432 183.859 164.432C183.139 164.432 182.851 164.072 182.635 163.352L174.283 139.448L166.579 163.352C166.363 164.072 166.075 164.432 165.283 164.432C164.491 164.432 164.203 164.072 163.915 163.352L153.835 135.056C152.683 131.816 151.603 130.592 150.307 129.44C149.515 128.792 149.371 128.72 149.371 128.288C149.371 127.64 149.659 127.496 150.307 127.496H164.419C165.211 127.496 165.427 127.712 165.427 128.288C165.427 128.936 165.211 129.08 164.275 129.296C160.963 130.088 160.603 131.456 161.755 134.984L167.155 150.968L174.571 128.144C174.787 127.28 175.291 126.848 176.011 126.848C176.731 126.848 177.163 127.28 177.451 128.144L185.371 151.544L190.267 134.984C191.275 131.456 191.059 130.088 187.747 129.296C186.883 129.08 186.595 128.936 186.595 128.288C186.595 127.712 186.883 127.496 187.603 127.496H197.251C197.971 127.496 198.259 127.64 198.259 128.288C198.259 128.72 198.043 128.792 197.323 129.44C196.027 130.592 194.875 131.744 193.867 135.056ZM226.904 156.512C226.904 158.168 227.12 158.96 228.056 158.96C229.208 158.96 230.216 157.592 230.864 157.592C231.44 157.592 231.584 157.952 231.584 158.528C231.584 160.544 228.344 164.792 223.736 164.792C220.856 164.792 219.56 162.776 219.56 159.464C218.048 161.984 214.952 164.864 210.128 164.864C204.224 164.864 199.976 160.976 199.976 155.144C199.976 150.608 202.712 147.656 206.528 145.496C209.192 143.984 212.792 142.544 219.704 140.24V137.072C219.704 132.536 217.904 129.728 213.8 129.728C211.352 129.728 209.912 131.24 209.264 132.608C208.616 133.904 208.4 135.272 208.112 136.568C207.68 138.152 206.528 139.52 204.584 139.52C202.424 139.52 201.128 137.936 201.128 135.704C201.128 131.672 205.736 126.632 214.304 126.632C223.376 126.632 227.12 131.312 227.048 138.152L226.904 156.512ZM207.392 154.352C207.392 158.024 209.624 160.4 213.008 160.4C216.608 160.4 219.632 157.016 219.632 153.56L219.704 143.552C210.632 146.72 207.392 150.104 207.392 154.352ZM249.182 176.528H234.638C233.846 176.528 233.558 176.312 233.558 175.664C233.558 175.088 233.774 174.872 234.638 174.584C237.014 173.72 237.734 172.928 237.734 169.4V136.496C237.734 131.528 237.014 130.664 235.214 129.728C234.566 129.296 234.206 129.08 234.206 128.504C234.206 127.856 234.494 127.496 235.718 127.496H243.926C244.862 127.496 245.15 127.784 245.15 128.576V132.968C246.806 130.448 250.406 126.632 256.31 126.632C265.31 126.632 270.062 133.904 270.062 144.344C270.062 156.944 262.862 164.864 252.278 164.864C249.182 164.864 246.806 164 245.15 163.064V169.4C245.15 173 246.014 173.648 249.11 174.512C250.19 174.8 250.334 175.016 250.334 175.664C250.334 176.312 249.974 176.528 249.182 176.528ZM245.15 141.176V152.624C245.15 158.24 247.742 161.84 252.638 161.84C258.326 161.84 261.998 155.36 261.998 145.784C261.998 137.288 259.262 131.096 253.43 131.096C248.678 131.096 245.15 135.632 245.15 141.176ZM314.653 134.984C315.877 131.672 315.517 130.088 312.349 129.296C311.485 129.08 311.269 128.936 311.269 128.288C311.269 127.712 311.557 127.496 312.205 127.496H321.925C322.573 127.496 322.861 127.64 322.861 128.288C322.861 128.72 322.717 128.792 321.925 129.44C320.629 130.592 319.693 131.816 318.397 135.056L307.525 163.496C307.237 164.288 307.021 164.576 306.157 164.576C305.437 164.576 305.221 164.288 304.933 163.496L293.125 135.056C291.757 131.816 290.893 130.592 289.525 129.44C288.805 128.792 288.589 128.72 288.589 128.288C288.589 127.64 288.877 127.496 289.597 127.496H303.565C304.285 127.496 304.573 127.712 304.573 128.288C304.573 128.936 304.357 129.08 303.493 129.296C300.325 130.088 299.893 131.672 301.189 134.984L308.029 152.48L314.653 134.984ZM327.503 117.632C327.503 115.256 329.447 113.24 332.039 113.24C334.631 113.24 336.575 115.256 336.575 117.632C336.575 120.08 334.631 122.096 332.039 122.096C329.447 122.096 327.503 120.08 327.503 117.632ZM339.311 164H325.703C324.911 164 324.623 163.784 324.623 163.208C324.623 162.632 324.839 162.416 325.703 162.128C328.079 161.192 328.799 160.472 328.799 156.872V136.496C328.799 131.528 328.079 130.664 326.351 129.728C325.631 129.296 325.271 129.08 325.271 128.504C325.271 127.856 325.559 127.496 326.783 127.496H334.991C335.927 127.496 336.215 127.784 336.215 128.576V156.872C336.215 160.472 336.935 161.192 339.311 162.128C340.175 162.416 340.391 162.632 340.391 163.208C340.391 163.784 340.103 164 339.311 164ZM371.115 156.512C371.115 158.168 371.331 158.96 372.267 158.96C373.419 158.96 374.427 157.592 375.075 157.592C375.651 157.592 375.795 157.952 375.795 158.528C375.795 160.544 372.555 164.792 367.947 164.792C365.067 164.792 363.771 162.776 363.771 159.464C362.259 161.984 359.163 164.864 354.339 164.864C348.435 164.864 344.187 160.976 344.187 155.144C344.187 150.608 346.923 147.656 350.739 145.496C353.403 143.984 357.003 142.544 363.915 140.24V137.072C363.915 132.536 362.115 129.728 358.011 129.728C355.563 129.728 354.123 131.24 353.475 132.608C352.827 133.904 352.611 135.272 352.323 136.568C351.891 138.152 350.739 139.52 348.795 139.52C346.635 139.52 345.339 137.936 345.339 135.704C345.339 131.672 349.947 126.632 358.515 126.632C367.587 126.632 371.331 131.312 371.259 138.152L371.115 156.512ZM351.603 154.352C351.603 158.024 353.835 160.4 357.219 160.4C360.819 160.4 363.843 157.016 363.843 153.56L363.915 143.552C354.843 146.72 351.603 150.104 351.603 154.352ZM395.391 164C394.455 164 394.167 163.784 394.167 163.064C394.167 162.488 394.383 162.272 395.319 161.984C398.487 161.048 399.495 160.256 399.495 156.368V120.944C399.495 117.056 398.487 116.264 395.319 115.328C394.383 115.04 394.167 114.824 394.167 114.248C394.167 113.528 394.455 113.312 395.391 113.312H413.391C430.383 113.312 442.047 122.168 442.047 138.584C442.047 154.64 430.455 164 413.391 164H395.391ZM412.599 160.832C425.343 160.832 433.263 153.488 433.263 138.728C433.263 123.896 425.343 116.48 412.599 116.48H407.487V160.832H412.599ZM447.493 164C446.557 164 446.269 163.784 446.269 163.064C446.269 162.488 446.485 162.272 447.421 161.984C450.589 161.048 451.597 160.256 451.597 156.368V120.944C451.597 117.056 450.589 116.264 447.421 115.328C446.485 115.04 446.269 114.824 446.269 114.248C446.269 113.528 446.557 113.312 447.493 113.312H479.821C480.685 113.312 480.973 113.528 481.045 114.464L481.333 125.624C481.405 126.488 481.117 126.992 480.397 126.992C479.677 126.992 479.389 126.56 479.173 125.768C477.157 118.064 475.573 116.48 467.437 116.48H459.589V137H463.981C468.805 137 469.813 136.424 471.037 130.88C471.253 129.872 471.541 129.728 472.189 129.728C472.837 129.728 473.053 130.016 473.053 130.664V147.008C473.053 147.656 472.837 148.016 472.189 148.016C471.469 148.016 471.253 147.872 471.037 146.936C469.813 141.248 468.805 140.6 463.981 140.6H459.589V160.76H467.365C476.005 160.76 477.661 158.672 480.685 150.896C480.973 150.104 481.189 149.816 481.837 149.816C482.413 149.816 482.773 150.176 482.701 150.968L480.973 162.92C480.901 163.712 480.685 164 479.965 164H447.493ZM496.936 156.296C496.144 157.52 495.712 158.456 495.712 159.32C495.712 160.616 496.72 161.48 498.88 161.984C500.032 162.272 500.176 162.56 500.176 163.136C500.176 163.784 499.96 164 499.168 164H487C486.136 164 485.92 163.784 485.92 163.208C485.92 162.704 486.136 162.488 486.928 161.912C489.088 160.616 490.96 158.96 493.696 154.856L503.992 139.376L493.264 122.456C490.672 118.28 488.8 116.624 486.856 115.4C486.064 114.824 485.848 114.608 485.848 114.104C485.848 113.528 486.064 113.312 486.928 113.312H504.208C504.928 113.312 505.216 113.528 505.216 114.176C505.216 114.752 505.072 115.04 503.92 115.328C501.688 115.904 500.752 116.696 500.752 117.992C500.752 118.856 501.184 119.72 501.832 120.872L510.112 134.264L518.752 121.016C519.544 119.792 519.976 118.856 519.976 117.992C519.976 116.696 519.04 115.832 516.808 115.328C515.656 115.04 515.512 114.752 515.512 114.176C515.512 113.528 515.728 113.312 516.52 113.312H528.616C529.48 113.312 529.696 113.528 529.696 114.104C529.696 114.608 529.48 114.824 528.688 115.4C526.672 116.696 524.8 118.352 522.064 122.456L512.128 137.504L522.856 154.856C525.448 159.032 527.32 160.688 529.264 161.912C530.056 162.488 530.272 162.704 530.272 163.208C530.272 163.784 530.056 164 529.192 164H512.416C511.696 164 511.408 163.784 511.408 163.136C511.408 162.56 511.552 162.272 512.776 161.984C514.936 161.48 515.872 160.616 515.872 159.392C515.872 158.528 515.512 157.592 514.792 156.44L506.008 142.544L496.936 156.296Z" fill="#3D3D3D"/>
<g id="Frame 27">
<g id="Frame 1">
<rect x="906" y="339" width="560" height="648" rx="20" fill="black"/>
<rect x="906" y="339" width="560" height="648" rx="20" stroke="#3D3D3D" stroke-opacity="0.12" stroke-width="2"/>
<g id="Group 3">
<g id="tempo 1" clip-path="url(#clip0_967_2892)">
<path id="Vector" d="M1088.55 454.032H1075L1087.56 415.9H1071.5L1075 404.723H1119.74L1116.24 415.9H1101.04L1088.55 454.032Z" fill="white"/>
<path id="Vector_2" d="M1138.97 454.032H1106.85L1122.97 404.723H1154.96L1151.92 414.125H1133.35L1129.98 424.71H1147.95L1144.91 433.98H1126.87L1123.5 444.63H1141.94L1138.97 454.032Z" fill="white"/>
<path id="Vector_3" d="M1153.5 454.032H1142.73L1158.92 404.723H1176.9L1176.3 431.35L1193.82 404.723H1213.51L1197.38 454.032H1183.9L1194.61 420.896H1194.41L1172.4 454.032H1164.41L1164.74 420.502H1164.61L1153.5 454.032Z" fill="white"/>
<path id="Vector_4" d="M1228.67 413.862L1223.45 429.772H1224.91C1228.21 429.772 1230.97 429.005 1233.17 427.471C1235.37 425.893 1236.8 423.658 1237.46 420.765C1238.04 418.267 1237.73 416.492 1236.54 415.44C1235.35 414.388 1233.37 413.862 1230.59 413.862H1228.67ZM1215.59 454.032H1202.04L1218.17 404.723H1234.62C1238.41 404.723 1241.67 405.337 1244.4 406.564C1247.18 407.747 1249.2 409.457 1250.48 411.692C1251.8 413.884 1252.25 416.448 1251.8 419.384C1251.23 423.241 1249.73 426.638 1247.31 429.575C1244.89 432.511 1241.74 434.791 1237.86 436.412C1234.03 437.99 1229.73 438.779 1224.97 438.779H1220.55L1215.59 454.032Z" fill="white"/>
<path id="Vector_5" d="M1284.1 450.876C1279.6 453.506 1274.82 454.821 1269.76 454.821H1269.62C1265.13 454.821 1261.34 453.835 1258.26 451.863C1255.22 449.846 1253.04 447.129 1251.71 443.71C1250.44 440.291 1250.13 436.544 1250.79 432.468C1251.63 427.34 1253.54 422.606 1256.54 418.267C1259.53 413.928 1263.28 410.465 1267.77 407.879C1272.27 405.293 1277.07 404 1282.18 404H1282.31C1286.98 404 1290.84 404.986 1293.88 406.959C1296.96 408.931 1299.1 411.626 1300.29 415.045C1301.52 418.42 1301.79 422.211 1301.08 426.419C1300.24 431.372 1298.33 436.04 1295.33 440.423C1292.34 444.762 1288.59 448.246 1284.1 450.876ZM1265.39 442.395C1266.58 444.63 1268.65 445.748 1271.61 445.748H1271.74C1274.16 445.748 1276.41 444.85 1278.48 443.052C1280.59 441.212 1282.38 438.757 1283.83 435.689C1285.33 432.621 1286.43 429.202 1287.14 425.433C1287.8 421.751 1287.53 418.793 1286.34 416.557C1285.15 414.278 1283.11 413.139 1280.2 413.139H1280.07C1277.82 413.139 1275.64 414.059 1273.52 415.9C1271.45 417.741 1269.65 420.217 1268.1 423.329C1266.56 426.441 1265.44 429.816 1264.73 433.454C1264.03 437.136 1264.25 440.116 1265.39 442.395Z" fill="white"/>
</g>
</g>
<path id="Mainnet" opacity="0.4" d="M1139.59 521H1133.83V493.112H1133.54L1122.94 521H1117.56L1107.1 493.112H1106.81V521H1101.1V487.4H1111.18L1120.39 512.36H1120.68L1130.09 487.4H1139.59V521ZM1166.36 521H1161.08V517.736H1160.84C1159.74 519.944 1157.62 521.48 1152.97 521.48C1147.59 521.48 1143.99 519.176 1143.99 513.752V513.512C1143.99 508.712 1146.39 506.12 1152.39 505.784L1160.98 505.304V504.44C1160.98 500.024 1158.97 499.304 1155.51 499.304C1152.39 499.304 1150.76 500.264 1150.14 502.856H1144.86C1145.86 497.624 1149.08 495.08 1155.37 495.08H1155.85C1162.81 495.08 1166.36 497.144 1166.36 504.872V521ZM1149.42 513.608C1149.42 516.392 1151.53 517.544 1154.5 517.544C1159.11 517.544 1160.98 515.336 1160.98 511.592V509.096L1153.64 509.48C1150.66 509.672 1149.42 510.776 1149.42 513.272V513.608ZM1176.06 487.4V492.056H1170.69V487.4H1176.06ZM1176.06 495.56V521H1170.69V495.56H1176.06ZM1202.61 521H1197.23V505.784C1197.23 500.984 1195.17 499.928 1191.86 499.928C1188.26 499.928 1186 501.416 1186 506.696V521H1180.62V495.56H1186V499.592H1186.24C1187.3 496.76 1189.41 495.08 1193.54 495.08C1199.01 495.08 1202.61 497.48 1202.61 504.44V521ZM1228.9 521H1223.53V505.784C1223.53 500.984 1221.46 499.928 1218.15 499.928C1214.55 499.928 1212.3 501.416 1212.3 506.696V521H1206.92V495.56H1212.3V499.592H1212.54C1213.59 496.76 1215.7 495.08 1219.83 495.08C1225.3 495.08 1228.9 497.48 1228.9 504.44V521ZM1255.3 513.848C1254 518.696 1250.69 521.48 1244.45 521.48H1244.02C1237.2 521.48 1232.78 518.168 1232.78 508.76V507.848C1232.78 498.392 1237.2 495.08 1244.02 495.08H1244.5C1251.31 495.08 1255.54 498.104 1255.54 507.512V509.48H1238.16C1238.3 515.816 1240.61 516.968 1244.26 516.968C1246.9 516.968 1248.96 516.344 1249.92 513.848H1255.3ZM1244.11 499.256C1240.8 499.256 1238.59 500.216 1238.21 505.64H1250.16V505.352C1250.16 500.648 1247.57 499.256 1244.11 499.256ZM1273.58 521H1270.22C1264.12 521 1262.3 518.792 1262.3 513.32V500.024H1257.6V495.56H1262.3V487.4H1267.68V495.56H1273.58V500.024H1267.68V511.928C1267.68 515.864 1268.64 516.536 1272.04 516.536H1273.58V521Z" fill="white"/>
<g id="Frame 31">
<g id="Group 10">
<path id="Vector_6" opacity="0.3" d="M955.414 583H1420.59C1426.34 583 1431 591.694 1431 602.418V919.582C1431 930.306 1426.34 939 1420.59 939H955.414C949.663 939 945 930.306 945 919.582V602.418C945 591.694 949.663 583 955.414 583Z" fill="white" stroke="#3D3D3D" stroke-opacity="0.12" stroke-width="2" stroke-dasharray="8 8"/>
<path id="Built-in DEX" d="M1093.42 667.264C1093.42 673.36 1090.4 676 1082.86 676H1065.92V642.4H1082.38C1090.06 642.4 1092.99 644.704 1092.99 650.56V651.376C1092.99 655.888 1091.4 658 1087.95 658.48V658.768C1091.64 659.152 1093.42 661.216 1093.42 665.92V667.264ZM1081.13 647.488H1071.72V656.512H1081.37C1085.74 656.512 1087.13 655.84 1087.13 652.336V652.096C1087.13 648.592 1085.74 647.488 1081.13 647.488ZM1081.13 661.216H1071.72V670.912H1081.28C1086.08 670.912 1087.52 669.808 1087.52 666.208V665.824C1087.52 661.888 1086.03 661.216 1081.13 661.216ZM1098 650.56H1103.38V665.776C1103.38 670.576 1105.44 671.632 1108.75 671.632C1112.35 671.632 1114.61 670.144 1114.61 664.864V650.56H1119.99V676H1114.61V671.968H1114.37C1113.36 674.8 1111.2 676.48 1107.07 676.48C1101.6 676.48 1098 674.08 1098 667.12V650.56ZM1129.87 642.4V647.056H1124.49V642.4H1129.87ZM1129.87 650.56V676H1124.49V650.56H1129.87ZM1139.8 676H1134.43V642.4H1139.8V676ZM1158.53 676H1155.17C1149.07 676 1147.25 673.792 1147.25 668.32V655.024H1142.54V650.56H1147.25V642.4H1152.62V650.56H1158.53V655.024H1152.62V666.928C1152.62 670.864 1153.58 671.536 1156.99 671.536H1158.53V676ZM1158.25 664.48V659.44H1169.77V664.48H1158.25ZM1178.19 642.4V647.056H1172.82V642.4H1178.19ZM1178.19 650.56V676H1172.82V650.56H1178.19ZM1204.74 676H1199.36V660.784C1199.36 655.984 1197.3 654.928 1193.99 654.928C1190.39 654.928 1188.13 656.416 1188.13 661.696V676H1182.76V650.56H1188.13V654.592H1188.37C1189.43 651.76 1191.54 650.08 1195.67 650.08C1201.14 650.08 1204.74 652.48 1204.74 659.44V676ZM1248.8 660.496C1248.8 671.2 1244.09 676 1233.92 676H1219.9V642.4H1233.92C1244.09 642.4 1248.8 647.248 1248.8 657.952V660.496ZM1233.82 647.488H1225.71V670.912H1233.82C1240.88 670.912 1242.84 666.736 1242.84 659.872V658.528C1242.84 651.664 1240.92 647.488 1233.82 647.488ZM1278.35 676H1254.4V642.4H1278.35V647.488H1260.21V656.608H1278.35V661.744H1260.21V670.912H1278.35V676ZM1313.07 676H1305.97L1297.23 663.04H1296.99L1288.21 676H1281.54L1293.3 658.768L1282.02 642.4H1289.12L1297.38 654.544H1297.62L1305.97 642.4H1312.64L1301.31 658.864L1313.07 676Z" fill="white"/>
</g>
<rect id="Rectangle 19" opacity="0.3" x="981.5" y="735" width="419" height="155" rx="13" fill="white" stroke="#3D3D3D" stroke-opacity="0.12" stroke-width="2" stroke-dasharray="8 8"/>
<path id="swap USDC for pathUSD" opacity="0.9" d="M1097.8 788.287C1097.8 785.145 1100.42 783.082 1104.45 783.082C1108.29 783.082 1110.8 784.919 1111.09 787.964H1108C1107.71 786.53 1106.34 785.644 1104.4 785.644C1102.34 785.644 1101 786.611 1101 788.061C1101 789.318 1101.86 790.011 1103.9 790.462L1106.45 791.026C1109.91 791.799 1111.48 793.282 1111.48 795.86C1111.48 799.195 1108.72 801.322 1104.43 801.322C1100.29 801.322 1097.62 799.469 1097.33 796.375H1100.58C1100.94 797.874 1102.39 798.728 1104.52 798.728C1106.72 798.728 1108.14 797.745 1108.14 796.214C1108.14 794.925 1107.35 794.265 1105.22 793.781L1102.6 793.185C1099.39 792.46 1097.8 790.849 1097.8 788.287ZM1134.37 783.437L1130.67 801H1127.69L1124.9 787.835H1124.72L1121.92 801H1118.94L1115.23 783.437H1118.36L1120.44 797.052H1120.81L1123.37 783.469H1126.24L1128.8 797.052H1129.17L1131.25 783.437H1134.37ZM1143.25 801.29C1139.9 801.29 1137.68 799.179 1137.68 796.005C1137.68 792.879 1139.93 791.042 1144.02 790.8L1148.63 790.559V789.012C1148.63 786.998 1147.38 785.87 1145.12 785.87C1143.25 785.87 1141.91 786.675 1141.5 788.061H1138.34C1138.66 785.161 1141.41 783.195 1145.19 783.195C1149.42 783.195 1151.84 785.322 1151.84 789.012V801.016H1148.76V798.454H1148.46C1147.62 800.259 1145.73 801.29 1143.25 801.29ZM1144.25 798.599C1146.76 798.599 1148.63 796.939 1148.63 794.7V792.847L1144.46 793.056C1142.12 793.185 1140.9 794.152 1140.9 795.86C1140.9 797.552 1142.19 798.599 1144.25 798.599ZM1166.97 783.163C1171.01 783.163 1173.59 786.047 1173.59 790.623V793.83C1173.59 798.406 1171.01 801.29 1166.97 801.29C1164.42 801.29 1162.59 800.178 1161.88 798.212H1161.57V806.897H1158.25V783.437H1161.49V786.224H1161.8C1162.62 784.226 1164.42 783.163 1166.97 783.163ZM1165.89 786.031C1163.2 786.031 1161.49 787.932 1161.49 790.945V793.572C1161.49 796.601 1163.2 798.502 1165.89 798.502C1168.6 798.502 1170.32 796.585 1170.32 793.572V790.945C1170.32 787.932 1168.6 786.031 1165.89 786.031ZM1206.4 798.406C1209.56 798.406 1211.38 796.311 1211.38 792.686V777.749H1214.73V792.895C1214.73 798.277 1211.62 801.483 1206.4 801.483C1201.18 801.483 1198.07 798.277 1198.07 792.895V777.749H1201.42V792.686C1201.42 796.311 1203.24 798.406 1206.4 798.406ZM1218.63 794.716H1221.87C1222.13 797.133 1224.04 798.567 1227.01 798.567C1229.94 798.567 1231.83 797.068 1231.83 794.732C1231.83 792.847 1230.59 791.735 1227.57 790.994L1225.45 790.494C1221.16 789.431 1219.18 787.336 1219.18 783.952C1219.18 779.892 1222.24 777.265 1226.98 777.265C1231.5 777.265 1234.6 779.859 1234.77 783.791H1231.55C1231.29 781.519 1229.6 780.182 1227.01 780.182C1224.22 780.182 1222.54 781.503 1222.54 783.71C1222.54 785.612 1223.75 786.708 1226.64 787.4L1228.76 787.932C1233.28 789.012 1235.19 790.994 1235.19 794.506C1235.19 798.792 1232.02 801.483 1226.98 801.483C1222.03 801.483 1218.85 798.905 1218.63 794.716ZM1239.38 777.749H1246.18C1252.74 777.749 1256.09 781.648 1256.09 789.302C1256.09 797.068 1252.77 801 1246.18 801H1239.38V777.749ZM1242.75 780.729V798.019H1245.81C1250.49 798.019 1252.66 795.28 1252.66 789.334C1252.66 783.501 1250.45 780.729 1245.81 780.729H1242.75ZM1268.11 798.406C1271.01 798.406 1272.85 796.601 1272.92 793.668H1276.3C1276.3 798.374 1273.03 801.483 1268.13 801.483C1262.59 801.483 1259.35 797.826 1259.35 791.525V787.223C1259.35 780.923 1262.59 777.265 1268.13 777.265C1273.16 777.265 1276.23 780.311 1276.3 785.418H1272.92C1272.82 782.373 1270.88 780.343 1268.1 780.343C1264.62 780.343 1262.8 782.711 1262.8 787.223V791.525C1262.8 796.037 1264.62 798.406 1268.11 798.406ZM1081.3 849V834.192H1076.59V831.533H1081.3V829.89C1081.3 826.345 1083.33 824.782 1087.77 824.782C1088.61 824.782 1091.54 824.846 1092.03 824.927V827.424C1091.38 827.36 1088.64 827.295 1087.84 827.295C1085.63 827.295 1084.47 828.149 1084.47 829.777V831.533H1092.03V834.192H1084.52V849H1081.3ZM1104.4 849.338C1099.67 849.338 1096.65 846.309 1096.65 841.556V838.897C1096.65 834.127 1099.67 831.114 1104.4 831.114C1109.14 831.114 1112.15 834.127 1112.15 838.897V841.556C1112.15 846.309 1109.14 849.338 1104.4 849.338ZM1104.4 833.854C1101.6 833.854 1099.84 835.868 1099.84 839.123V841.33C1099.84 844.585 1101.6 846.599 1104.4 846.599C1107.21 846.599 1108.96 844.585 1108.96 841.33V839.123C1108.96 835.868 1107.21 833.854 1104.4 833.854ZM1124.22 841.169V846.519H1129.56V849H1117.6V846.519H1121.08V833.918H1117.26V831.437H1124.21V835.916H1124.66C1125.35 832.613 1127.4 830.985 1130.76 830.985C1131.76 830.985 1132.71 831.114 1133.29 831.356V834.901C1132.5 834.611 1131.36 834.401 1130.39 834.401C1126.43 834.401 1124.22 836.867 1124.22 841.169ZM1166.97 831.163C1171.01 831.163 1173.59 834.047 1173.59 838.623V841.83C1173.59 846.406 1171.01 849.29 1166.97 849.29C1164.42 849.29 1162.59 848.178 1161.88 846.212H1161.57V854.897H1158.25V831.437H1161.49V834.224H1161.8C1162.62 832.226 1164.42 831.163 1166.97 831.163ZM1165.89 834.031C1163.2 834.031 1161.49 835.932 1161.49 838.945V841.572C1161.49 844.601 1163.2 846.502 1165.89 846.502C1168.6 846.502 1170.32 844.585 1170.32 841.572V838.945C1170.32 835.932 1168.6 834.031 1165.89 834.031ZM1184.05 849.29C1180.7 849.29 1178.48 847.179 1178.48 844.005C1178.48 840.879 1180.73 839.042 1184.82 838.8L1189.43 838.559V837.012C1189.43 834.998 1188.18 833.87 1185.92 833.87C1184.05 833.87 1182.71 834.675 1182.29 836.061H1179.14C1179.46 833.161 1182.21 831.195 1185.98 831.195C1190.22 831.195 1192.64 833.322 1192.64 837.012V849.016H1189.56V846.454H1189.25C1188.42 848.259 1186.53 849.29 1184.05 849.29ZM1185.05 846.599C1187.56 846.599 1189.43 844.939 1189.43 842.7V840.847L1185.26 841.056C1182.92 841.185 1181.7 842.152 1181.7 843.86C1181.7 845.552 1182.99 846.599 1185.05 846.599ZM1203.21 826.635H1206.4V831.533H1213.34V834.192H1206.45V843.683C1206.45 845.423 1207.66 846.374 1209.9 846.374C1210.72 846.374 1212.86 846.341 1213.25 846.293V848.936C1212.89 849 1210.35 849.064 1209.67 849.064C1205.17 849.064 1203.21 847.453 1203.21 843.683V834.192H1198.57V831.533H1203.21V826.635ZM1219.39 849V824.588H1222.51V834.514H1222.75C1223.66 832.355 1225.65 831.13 1228.31 831.13C1232.13 831.13 1234.21 833.435 1234.21 837.64V849H1230.99V838.43C1230.99 835.449 1229.75 834.015 1227.15 834.015C1224.43 834.015 1222.63 835.9 1222.63 838.736V849H1219.39ZM1247.2 846.406C1250.36 846.406 1252.18 844.311 1252.18 840.686V825.749H1255.53V840.895C1255.53 846.277 1252.42 849.483 1247.2 849.483C1241.98 849.483 1238.87 846.277 1238.87 840.895V825.749H1242.22V840.686C1242.22 844.311 1244.04 846.406 1247.2 846.406ZM1259.43 842.716H1262.67C1262.92 845.133 1264.84 846.567 1267.81 846.567C1270.74 846.567 1272.62 845.068 1272.62 842.732C1272.62 840.847 1271.38 839.735 1268.37 838.994L1266.24 838.494C1261.96 837.431 1259.98 835.336 1259.98 831.952C1259.98 827.892 1263.04 825.265 1267.77 825.265C1272.3 825.265 1275.4 827.859 1275.57 831.791H1272.35C1272.09 829.519 1270.4 828.182 1267.81 828.182C1265.02 828.182 1263.34 829.503 1263.34 831.71C1263.34 833.612 1264.55 834.708 1267.44 835.4L1269.56 835.932C1274.08 837.012 1275.99 838.994 1275.99 842.506C1275.99 846.792 1272.82 849.483 1267.77 849.483C1262.83 849.483 1259.65 846.905 1259.43 842.716ZM1280.18 825.749H1286.98C1293.54 825.749 1296.89 829.648 1296.89 837.302C1296.89 845.068 1293.57 849 1286.98 849H1280.18V825.749ZM1283.55 828.729V846.019H1286.61C1291.28 846.019 1293.46 843.28 1293.46 837.334C1293.46 831.501 1291.25 828.729 1286.61 828.729H1283.55Z" fill="white"/>
</g>
</g>
<g id="Frame 4">
<g id="Frame 3">
<g id="Frame 46">
<path id="Vector_7" d="M584.021 519H182.979C178.02 519 174 526.522 174 535.8V810.2C174 819.478 178.02 827 182.979 827H584.021C588.98 827 593 819.478 593 810.2V535.8C593 526.522 588.98 519 584.021 519Z" fill="white" stroke="#3D3D3D" stroke-opacity="0.12" stroke-width="2" stroke-dasharray="8 8"/>
<g id="Frame 47">
<rect x="439" y="545" width="110" height="63" rx="8" fill="black"/>
<path id="USDC" d="M460.619 586.592C464.311 586.592 466.455 584.166 466.455 580V563.635H469.549V580.193C469.549 586.029 466.209 589.527 460.619 589.527C455.029 589.527 451.689 586.029 451.689 580.193V563.635H454.783V580C454.783 584.166 456.928 586.592 460.619 586.592ZM474.189 582.25H477.213C477.529 585.027 479.762 586.715 483.137 586.715C486.512 586.715 488.727 584.957 488.727 582.232C488.727 580.035 487.25 578.717 483.822 577.873L481.643 577.328C476.932 576.133 474.805 573.9 474.805 570.227C474.805 565.902 478.057 563.107 483.119 563.107C487.9 563.107 491.188 565.867 491.398 570.086H488.375C488.059 567.467 486.125 565.92 483.137 565.92C479.885 565.92 477.934 567.467 477.934 570.051C477.934 572.248 479.34 573.514 482.645 574.34L484.859 574.902C489.781 576.115 491.855 578.26 491.855 582.074C491.855 586.627 488.428 589.527 483.119 589.527C477.881 589.527 474.453 586.75 474.189 582.25ZM496.812 563.635H503.914C511.104 563.635 514.725 567.871 514.725 576.273C514.725 584.746 511.104 589 503.914 589H496.812V563.635ZM499.924 566.482V586.152H503.633C509.012 586.152 511.561 583.006 511.561 576.291C511.561 569.646 508.994 566.482 503.633 566.482H499.924ZM527.961 586.592C531.336 586.592 533.48 584.57 533.568 581.301H536.697C536.697 586.205 533.146 589.527 527.961 589.527C522.002 589.527 518.539 585.502 518.539 578.576V574.059C518.539 567.133 522.002 563.107 527.961 563.107C533.305 563.107 536.609 566.359 536.715 571.773H533.568C533.463 568.346 531.195 566.043 527.943 566.043C523.848 566.043 521.703 568.803 521.703 574.059V578.576C521.703 583.832 523.848 586.592 527.961 586.592Z" fill="#3D3D3D" fill-opacity="0.45"/>
</g>
</g>
<path id="Vector 1" opacity="0.1" d="M408 519.5V825.5" stroke="black"/>
<g id="Vector_8">
<path d="M278.625 577.816H270.766V575.324H278.625V577.816Z" fill="#2ED894"/>
<path d="M278.625 573.766H270.766V571.273H278.625V573.766Z" fill="#2ED894"/>
<path d="M289.5 566.515H278.625V569.716H270.766V566.515H219.5V558.5H289.5V566.515Z" fill="#2ED894"/>
<path d="M289.5 590.36V581.554H219.5V590.36H231.061V592.315H238.919V590.36H289.5Z" fill="#2ED894"/>
<path d="M238.919 593.873H231.061V596.365H238.919V593.873Z" fill="#2ED894"/>
<path d="M238.919 597.923H231.061V600.415H238.919V597.923Z" fill="#2ED894"/>
<path d="M289.5 605.485H238.919V601.973H231.061V605.485H219.5V613.5H289.5V605.485Z" fill="#2ED894"/>
<path d="M230.375 577.816H238.234V575.324H230.375V577.816Z" fill="#2ED894"/>
<path d="M230.375 573.766H238.234V571.273H230.375V573.766Z" fill="#2ED894"/>
<path d="M219.5 566.515H230.375V569.716H238.234V566.515H249.795V558.5H219.5V566.515Z" fill="#2ED894"/>
<path d="M219.5 590.36V581.554H289.5V590.36H277.939V592.315H270.081V590.36H219.5Z" fill="#2ED894"/>
<path d="M270.081 593.873H277.939V596.365H270.081V593.873Z" fill="#2ED894"/>
<path d="M270.081 597.923H277.939V600.415H270.081V597.923Z" fill="#2ED894"/>
<path d="M259.525 605.485H270.081V601.973H277.939V605.485H289.5V613.5H259.525V605.485Z" fill="#2ED894"/>
<path d="M278.625 582.036H270.766V579.543H278.625V582.036Z" fill="#2ED894"/>
<path d="M230.375 582.036H238.234V579.543H230.375V582.036Z" fill="#2ED894"/>
</g>
</g>
<path id="Zone 3" d="M245.566 783H218.494V778.056L237.598 754.488H219.31V749.4H244.942V754.344L225.838 777.912H245.566V783ZM260.582 783.48H259.958C252.326 783.48 248.582 779.496 248.582 770.712V769.8C248.582 761.016 252.326 757.08 260.006 757.08H260.63C268.262 757.08 272.006 761.064 272.006 769.848V770.76C272.006 779.544 268.262 783.48 260.582 783.48ZM260.342 778.68C264.134 778.68 266.63 777.48 266.63 770.616V769.896C266.63 763.08 264.134 761.88 260.342 761.88C256.454 761.88 253.958 763.08 253.958 769.944V770.664C253.958 777.48 256.454 778.68 260.342 778.68ZM298.092 783H292.716V767.784C292.716 762.984 290.652 761.928 287.34 761.928C283.74 761.928 281.484 763.416 281.484 768.696V783H276.108V757.56H281.484V761.592H281.724C282.78 758.76 284.892 757.08 289.02 757.08C294.492 757.08 298.092 759.48 298.092 766.44V783ZM324.484 775.848C323.188 780.696 319.876 783.48 313.636 783.48H313.204C306.388 783.48 301.972 780.168 301.972 770.76V769.848C301.972 760.392 306.388 757.08 313.204 757.08H313.684C320.5 757.08 324.724 760.104 324.724 769.512V771.48H307.348C307.492 777.816 309.796 778.968 313.444 778.968C316.084 778.968 318.148 778.344 319.108 775.848H324.484ZM313.3 761.256C309.988 761.256 307.78 762.216 307.396 767.64H319.348V767.352C319.348 762.648 316.756 761.256 313.3 761.256ZM352.314 783.48H351.594C345.594 783.48 339.69 780.888 338.922 773.544H344.586C345.306 777.576 348.57 778.44 351.978 778.44C356.394 778.44 358.794 776.712 358.794 773.208V772.824C358.794 769.656 357.546 768.216 352.938 768.216H347.178V763.032H352.698C356.874 763.032 358.17 761.64 358.17 758.904V758.568C358.17 755.304 355.914 753.96 351.834 753.96C348.858 753.96 345.93 754.68 345.258 758.376H339.594C340.698 751.512 345.354 748.92 351.594 748.92H352.122C359.226 748.92 363.834 751.944 363.834 757.368V757.704C363.834 761.544 362.346 763.848 359.13 764.664V764.904C362.394 765.72 364.458 768.12 364.458 772.728V773.16C364.458 779.976 359.802 783.48 352.314 783.48Z" fill="#3D3D3D"/>
<g id="Frame 2">
<path id="USDC_2" d="M460.619 586.592C464.311 586.592 466.455 584.166 466.455 580V563.635H469.549V580.193C469.549 586.029 466.209 589.527 460.619 589.527C455.029 589.527 451.689 586.029 451.689 580.193V563.635H454.783V580C454.783 584.166 456.928 586.592 460.619 586.592ZM474.189 582.25H477.213C477.529 585.027 479.762 586.715 483.137 586.715C486.512 586.715 488.727 584.957 488.727 582.232C488.727 580.035 487.25 578.717 483.822 577.873L481.643 577.328C476.932 576.133 474.805 573.9 474.805 570.227C474.805 565.902 478.057 563.107 483.119 563.107C487.9 563.107 491.188 565.867 491.398 570.086H488.375C488.059 567.467 486.125 565.92 483.137 565.92C479.885 565.92 477.934 567.467 477.934 570.051C477.934 572.248 479.34 573.514 482.645 574.34L484.859 574.902C489.781 576.115 491.855 578.26 491.855 582.074C491.855 586.627 488.428 589.527 483.119 589.527C477.881 589.527 474.453 586.75 474.189 582.25ZM496.812 563.635H503.914C511.104 563.635 514.725 567.871 514.725 576.273C514.725 584.746 511.104 589 503.914 589H496.812V563.635ZM499.924 566.482V586.152H503.633C509.012 586.152 511.561 583.006 511.561 576.291C511.561 569.646 508.994 566.482 503.633 566.482H499.924ZM527.961 586.592C531.336 586.592 533.48 584.57 533.568 581.301H536.697C536.697 586.205 533.146 589.527 527.961 589.527C522.002 589.527 518.539 585.502 518.539 578.576V574.059C518.539 567.133 522.002 563.107 527.961 563.107C533.305 563.107 536.609 566.359 536.715 571.773H533.568C533.463 568.346 531.195 566.043 527.943 566.043C523.848 566.043 521.703 568.803 521.703 574.059V578.576C521.703 583.832 523.848 586.592 527.961 586.592Z" fill="#F3F3F3"/>
<path id="USDT" d="M460.619 657.592C464.311 657.592 466.455 655.166 466.455 651V634.635H469.549V651.193C469.549 657.029 466.209 660.527 460.619 660.527C455.029 660.527 451.689 657.029 451.689 651.193V634.635H454.783V651C454.783 655.166 456.928 657.592 460.619 657.592ZM474.189 653.25H477.213C477.529 656.027 479.762 657.715 483.137 657.715C486.512 657.715 488.727 655.957 488.727 653.232C488.727 651.035 487.25 649.717 483.822 648.873L481.643 648.328C476.932 647.133 474.805 644.9 474.805 641.227C474.805 636.902 478.057 634.107 483.119 634.107C487.9 634.107 491.188 636.867 491.398 641.086H488.375C488.059 638.467 486.125 636.92 483.137 636.92C479.885 636.92 477.934 638.467 477.934 641.051C477.934 643.248 479.34 644.514 482.645 645.34L484.859 645.902C489.781 647.115 491.855 649.26 491.855 653.074C491.855 657.627 488.428 660.527 483.119 660.527C477.881 660.527 474.453 657.75 474.189 653.25ZM496.812 634.635H503.914C511.104 634.635 514.725 638.871 514.725 647.273C514.725 655.746 511.104 660 503.914 660H496.812V634.635ZM499.924 637.482V657.152H503.633C509.012 657.152 511.561 654.006 511.561 647.291C511.561 640.646 508.994 637.482 503.633 637.482H499.924ZM528.928 660H525.834V637.482H518.17V634.635H536.592V637.482H528.928V660Z" fill="#3D3D3D" fill-opacity="0.45"/>
<path id="..." d="M471.746 719.105C470.006 719.105 468.564 717.646 468.564 715.854C468.564 714.078 470.006 712.619 471.746 712.619C473.486 712.619 474.928 714.078 474.928 715.854C474.928 717.646 473.486 719.105 471.746 719.105ZM494 719.105C492.26 719.105 490.818 717.646 490.818 715.854C490.818 714.078 492.26 712.619 494 712.619C495.74 712.619 497.182 714.078 497.182 715.854C497.182 717.646 495.74 719.105 494 719.105ZM516.254 719.105C514.514 719.105 513.072 717.646 513.072 715.854C513.072 714.078 514.514 712.619 516.254 712.619C517.994 712.619 519.436 714.078 519.436 715.854C519.436 717.646 517.994 719.105 516.254 719.105Z" fill="#3D3D3D" fill-opacity="0.45"/>
<path id="..._2" d="M471.746 778.105C470.006 778.105 468.564 776.646 468.564 774.854C468.564 773.078 470.006 771.619 471.746 771.619C473.486 771.619 474.928 773.078 474.928 774.854C474.928 776.646 473.486 778.105 471.746 778.105ZM494 778.105C492.26 778.105 490.818 776.646 490.818 774.854C490.818 773.078 492.26 771.619 494 771.619C495.74 771.619 497.182 773.078 497.182 774.854C497.182 776.646 495.74 778.105 494 778.105ZM516.254 778.105C514.514 778.105 513.072 776.646 513.072 774.854C513.072 773.078 514.514 771.619 516.254 771.619C517.994 771.619 519.436 773.078 519.436 774.854C519.436 776.646 517.994 778.105 516.254 778.105Z" fill="#3D3D3D" fill-opacity="0.45"/>
</g>
</g>
<path id="Vector 4" d="M593 574L747.292 574C752.814 574 757.292 578.477 757.292 584L757.291 787C757.291 792.523 761.768 797 767.291 797L982 797" stroke="#949494" stroke-width="6"/>
<path id="Vector 5" d="M1760.12 576.121C1761.29 574.95 1761.29 573.05 1760.12 571.879L1741.03 552.787C1739.86 551.615 1737.96 551.615 1736.79 552.787C1735.62 553.958 1735.62 555.858 1736.79 557.029L1753.76 574L1736.79 590.971C1735.62 592.142 1735.62 594.042 1736.79 595.213C1737.96 596.385 1739.86 596.385 1741.03 595.213L1760.12 576.121ZM1607.22 787L1610.22 787L1607.22 787ZM1607.22 584L1604.22 584L1607.22 584ZM1758 574L1758 571L1617.22 571L1617.22 574L1617.22 577L1758 577L1758 574ZM1607.22 584L1604.22 584L1604.22 787L1607.22 787L1610.22 787L1610.22 584L1607.22 584ZM1597.22 797L1597.22 794L1401 794L1401 797L1401 800L1597.22 800L1597.22 797ZM1607.22 787L1604.22 787C1604.22 790.866 1601.09 794 1597.22 794L1597.22 797L1597.22 800C1604.4 800 1610.22 794.18 1610.22 787L1607.22 787ZM1617.22 574L1617.22 571C1610.04 571 1604.22 576.82 1604.22 584L1607.22 584L1610.22 584C1610.22 580.134 1613.36 577 1617.22 577L1617.22 574Z" fill="#949494"/>
<g id="Frame 5">
<g id="Frame 7">
<path id="Vector_9" d="M2268.26 519H1788.74C1782.81 519 1778 526.522 1778 535.8V810.2C1778 819.478 1782.81 827 1788.74 827H2268.26C2274.19 827 2279 819.478 2279 810.2V535.8C2279 526.522 2274.19 519 2268.26 519Z" fill="white" stroke="#3D3D3D" stroke-opacity="0.12" stroke-width="2" stroke-dasharray="8 8"/>
<path id="Vector 1_2" opacity="0.1" d="M2020 519.5V825.5" stroke="black"/>
<g id="Vector_10">
<path d="M1882.28 577.965H1874.53V575.518H1882.28V577.965Z" fill="#9AA9FD"/>
<path d="M1882.28 573.988H1874.53V571.541H1882.28V573.988Z" fill="#9AA9FD"/>
<path d="M1893 566.869H1882.28V570.012H1874.53V566.869H1824V559H1893V566.869Z" fill="#9AA9FD"/>
<path d="M1893 590.281V581.635H1824V590.281H1835.4V592.2H1843.14V590.281H1893Z" fill="#9AA9FD"/>
<path d="M1843.14 593.729H1835.4V596.176H1843.14V593.729Z" fill="#9AA9FD"/>
<path d="M1843.14 597.706H1835.4V600.153H1843.14V597.706Z" fill="#9AA9FD"/>
<path d="M1893 605.131H1843.14V601.682H1835.4V605.131H1824V613H1893V605.131Z" fill="#9AA9FD"/>
<path d="M1834.72 577.965H1842.47V575.518H1834.72V577.965Z" fill="#9AA9FD"/>
<path d="M1834.72 573.988H1842.47V571.541H1834.72V573.988Z" fill="#9AA9FD"/>
<path d="M1824 566.869H1834.72V570.012H1842.47V566.869H1853.86V559H1824V566.869Z" fill="#9AA9FD"/>
<path d="M1824 590.281V581.635H1893V590.281H1881.6V592.2H1873.86V590.281H1824Z" fill="#9AA9FD"/>
<path d="M1873.86 593.729H1881.6V596.176H1873.86V593.729Z" fill="#9AA9FD"/>
<path d="M1873.86 597.706H1881.6V600.153H1873.86V597.706Z" fill="#9AA9FD"/>
<path d="M1863.45 605.131H1873.86V601.682H1881.6V605.131H1893V613H1863.45V605.131Z" fill="#9AA9FD"/>
<path d="M1882.28 582.108H1874.53V579.661H1882.28V582.108Z" fill="#9AA9FD"/>
<path d="M1834.72 582.108H1842.47V579.661H1834.72V582.108Z" fill="#9AA9FD"/>
</g>
<path id="Zone 2" d="M1850.57 783H1823.49V778.056L1842.6 754.488H1824.31V749.4H1849.94V754.344L1830.84 777.912H1850.57V783ZM1865.58 783.48H1864.96C1857.33 783.48 1853.58 779.496 1853.58 770.712V769.8C1853.58 761.016 1857.33 757.08 1865.01 757.08H1865.63C1873.26 757.08 1877.01 761.064 1877.01 769.848V770.76C1877.01 779.544 1873.26 783.48 1865.58 783.48ZM1865.34 778.68C1869.13 778.68 1871.63 777.48 1871.63 770.616V769.896C1871.63 763.08 1869.13 761.88 1865.34 761.88C1861.45 761.88 1858.96 763.08 1858.96 769.944V770.664C1858.96 777.48 1861.45 778.68 1865.34 778.68ZM1903.09 783H1897.72V767.784C1897.72 762.984 1895.65 761.928 1892.34 761.928C1888.74 761.928 1886.48 763.416 1886.48 768.696V783H1881.11V757.56H1886.48V761.592H1886.72C1887.78 758.76 1889.89 757.08 1894.02 757.08C1899.49 757.08 1903.09 759.48 1903.09 766.44V783ZM1929.48 775.848C1928.19 780.696 1924.88 783.48 1918.64 783.48H1918.2C1911.39 783.48 1906.97 780.168 1906.97 770.76V769.848C1906.97 760.392 1911.39 757.08 1918.2 757.08H1918.68C1925.5 757.08 1929.72 760.104 1929.72 769.512V771.48H1912.35C1912.49 777.816 1914.8 778.968 1918.44 778.968C1921.08 778.968 1923.15 778.344 1924.11 775.848H1929.48ZM1918.3 761.256C1914.99 761.256 1912.78 762.216 1912.4 767.64H1924.35V767.352C1924.35 762.648 1921.76 761.256 1918.3 761.256ZM1969.27 783H1943.87V777.768C1943.87 769.944 1945.65 767.208 1953.14 765.48L1959.04 764.04C1962.64 763.176 1963.6 761.88 1963.6 758.952V758.664C1963.6 755.448 1961.39 753.96 1957.03 753.96C1952.99 753.96 1950.45 755.112 1949.97 758.52H1944.31C1945.17 751.368 1950.26 748.92 1956.55 748.92H1957.17C1964.99 748.92 1969.22 752.088 1969.22 758.328V758.808C1969.22 764.088 1967.39 767.256 1961.39 768.696L1954.96 770.232C1950.55 771.288 1949.49 772.248 1949.49 777.048V777.912H1969.27V783Z" fill="#3D3D3D"/>
</g>
<g id="Frame 6">
<path id="pathUSD" d="M2077.43 577.611C2081.85 577.611 2084.73 580.793 2084.73 585.697V589.248C2084.73 594.135 2081.85 597.316 2077.43 597.316C2074.67 597.316 2072.65 596.139 2071.83 594.047H2071.49V603.434H2068.45V577.928H2071.4V580.846H2071.72C2072.72 578.736 2074.71 577.611 2077.43 577.611ZM2076.57 580.354C2073.43 580.354 2071.42 582.604 2071.42 586.119V588.861C2071.42 592.395 2073.43 594.645 2076.57 594.645C2079.72 594.645 2081.72 592.377 2081.72 588.861V586.119C2081.72 582.604 2079.72 580.354 2076.57 580.354ZM2096.56 597.334C2092.92 597.334 2090.49 595.049 2090.49 591.586C2090.49 588.211 2092.92 586.207 2097.26 585.979L2102.5 585.715V583.992C2102.5 581.602 2101.04 580.283 2098.39 580.283C2096.19 580.283 2094.64 581.215 2094.15 582.85H2091.21C2091.57 579.791 2094.52 577.699 2098.42 577.699C2102.9 577.699 2105.47 579.984 2105.47 583.957V597.018H2102.62V594.152H2102.32C2101.41 596.191 2099.34 597.334 2096.56 597.334ZM2097.42 594.715C2100.3 594.715 2102.5 592.799 2102.5 590.25V588L2097.6 588.229C2094.92 588.352 2093.52 589.494 2093.52 591.48C2093.52 593.484 2095.01 594.715 2097.42 594.715ZM2117.49 572.812H2120.45V577.98H2128.18V580.529H2120.48V591.287C2120.48 593.361 2121.94 594.486 2124.63 594.486C2125.7 594.486 2127.62 594.434 2128.13 594.381V596.912C2127.65 597 2125.33 597.088 2124.42 597.088C2119.69 597.088 2117.49 595.295 2117.49 591.322V580.529H2112.41V577.98H2117.49V572.812ZM2135.18 597V570.439H2138.06V581.303H2138.31C2139.31 578.93 2141.51 577.594 2144.42 577.594C2148.57 577.594 2150.82 580.09 2150.82 584.643V597H2147.83V585.398C2147.83 581.971 2146.43 580.336 2143.44 580.336C2140.29 580.336 2138.17 582.533 2138.17 585.785V597H2135.18ZM2165.25 594.592C2168.95 594.592 2171.09 592.166 2171.09 588V571.635H2174.18V588.193C2174.18 594.029 2170.84 597.527 2165.25 597.527C2159.66 597.527 2156.32 594.029 2156.32 588.193V571.635H2159.42V588C2159.42 592.166 2161.56 594.592 2165.25 594.592ZM2178.82 590.25H2181.85C2182.16 593.027 2184.4 594.715 2187.77 594.715C2191.15 594.715 2193.36 592.957 2193.36 590.232C2193.36 588.035 2191.88 586.717 2188.46 585.873L2186.28 585.328C2181.57 584.133 2179.44 581.9 2179.44 578.227C2179.44 573.902 2182.69 571.107 2187.75 571.107C2192.54 571.107 2195.82 573.867 2196.03 578.086H2193.01C2192.69 575.467 2190.76 573.92 2187.77 573.92C2184.52 573.92 2182.57 575.467 2182.57 578.051C2182.57 580.248 2183.97 581.514 2187.28 582.34L2189.49 582.902C2194.42 584.115 2196.49 586.26 2196.49 590.074C2196.49 594.627 2193.06 597.527 2187.75 597.527C2182.52 597.527 2179.09 594.75 2178.82 590.25ZM2201.45 571.635H2208.55C2215.74 571.635 2219.36 575.871 2219.36 584.273C2219.36 592.746 2215.74 597 2208.55 597H2201.45V571.635ZM2204.56 574.482V594.152H2208.27C2213.65 594.152 2216.2 591.006 2216.2 584.291C2216.2 577.646 2213.63 574.482 2208.27 574.482H2204.56Z" fill="#3D3D3D" fill-opacity="0.45"/>
<path id="..._3" d="M2120.75 656.105C2119.01 656.105 2117.56 654.646 2117.56 652.854C2117.56 651.078 2119.01 649.619 2120.75 649.619C2122.49 649.619 2123.93 651.078 2123.93 652.854C2123.93 654.646 2122.49 656.105 2120.75 656.105ZM2143 656.105C2141.26 656.105 2139.82 654.646 2139.82 652.854C2139.82 651.078 2141.26 649.619 2143 649.619C2144.74 649.619 2146.18 651.078 2146.18 652.854C2146.18 654.646 2144.74 656.105 2143 656.105ZM2165.25 656.105C2163.51 656.105 2162.07 654.646 2162.07 652.854C2162.07 651.078 2163.51 649.619 2165.25 649.619C2166.99 649.619 2168.44 651.078 2168.44 652.854C2168.44 654.646 2166.99 656.105 2165.25 656.105Z" fill="#3D3D3D" fill-opacity="0.45"/>
<path id="..._4" d="M2120.75 715.105C2119.01 715.105 2117.56 713.646 2117.56 711.854C2117.56 710.078 2119.01 708.619 2120.75 708.619C2122.49 708.619 2123.93 710.078 2123.93 711.854C2123.93 713.646 2122.49 715.105 2120.75 715.105ZM2143 715.105C2141.26 715.105 2139.82 713.646 2139.82 711.854C2139.82 710.078 2141.26 708.619 2143 708.619C2144.74 708.619 2146.18 710.078 2146.18 711.854C2146.18 713.646 2144.74 715.105 2143 715.105ZM2165.25 715.105C2163.51 715.105 2162.07 713.646 2162.07 711.854C2162.07 710.078 2163.51 708.619 2165.25 708.619C2166.99 708.619 2168.44 710.078 2168.44 711.854C2168.44 713.646 2166.99 715.105 2165.25 715.105Z" fill="#3D3D3D" fill-opacity="0.45"/>
<path id="..._5" d="M2120.75 774.105C2119.01 774.105 2117.56 772.646 2117.56 770.854C2117.56 769.078 2119.01 767.619 2120.75 767.619C2122.49 767.619 2123.93 769.078 2123.93 770.854C2123.93 772.646 2122.49 774.105 2120.75 774.105ZM2143 774.105C2141.26 774.105 2139.82 772.646 2139.82 770.854C2139.82 769.078 2141.26 767.619 2143 767.619C2144.74 767.619 2146.18 769.078 2146.18 770.854C2146.18 772.646 2144.74 774.105 2143 774.105ZM2165.25 774.105C2163.51 774.105 2162.07 772.646 2162.07 770.854C2162.07 769.078 2163.51 767.619 2165.25 767.619C2166.99 767.619 2168.44 769.078 2168.44 770.854C2168.44 772.646 2166.99 774.105 2165.25 774.105Z" fill="#3D3D3D" fill-opacity="0.45"/>
</g>
</g>
</g>
<g id="Frame 47_2">
<rect x="2051" y="552" width="189" height="63" rx="8" fill="black"/>
<path id="pathUSD_2" d="M2079.93 576.611C2084.35 576.611 2087.23 579.793 2087.23 584.697V588.248C2087.23 593.135 2084.35 596.316 2079.93 596.316C2077.17 596.316 2075.15 595.139 2074.33 593.047H2073.99V602.434H2070.95V576.928H2073.9V579.846H2074.22C2075.22 577.736 2077.21 576.611 2079.93 576.611ZM2079.07 579.354C2075.93 579.354 2073.92 581.604 2073.92 585.119V587.861C2073.92 591.395 2075.93 593.645 2079.07 593.645C2082.22 593.645 2084.22 591.377 2084.22 587.861V585.119C2084.22 581.604 2082.22 579.354 2079.07 579.354ZM2099.06 596.334C2095.42 596.334 2092.99 594.049 2092.99 590.586C2092.99 587.211 2095.42 585.207 2099.76 584.979L2105 584.715V582.992C2105 580.602 2103.54 579.283 2100.89 579.283C2098.69 579.283 2097.14 580.215 2096.65 581.85H2093.71C2094.07 578.791 2097.02 576.699 2100.92 576.699C2105.4 576.699 2107.97 578.984 2107.97 582.957V596.018H2105.12V593.152H2104.82C2103.91 595.191 2101.84 596.334 2099.06 596.334ZM2099.92 593.715C2102.8 593.715 2105 591.799 2105 589.25V587L2100.1 587.229C2097.42 587.352 2096.02 588.494 2096.02 590.48C2096.02 592.484 2097.51 593.715 2099.92 593.715ZM2119.99 571.812H2122.95V576.98H2130.68V579.529H2122.98V590.287C2122.98 592.361 2124.44 593.486 2127.13 593.486C2128.2 593.486 2130.12 593.434 2130.63 593.381V595.912C2130.15 596 2127.83 596.088 2126.92 596.088C2122.19 596.088 2119.99 594.295 2119.99 590.322V579.529H2114.91V576.98H2119.99V571.812ZM2137.68 596V569.439H2140.56V580.303H2140.81C2141.81 577.93 2144.01 576.594 2146.92 576.594C2151.07 576.594 2153.32 579.09 2153.32 583.643V596H2150.33V584.398C2150.33 580.971 2148.93 579.336 2145.94 579.336C2142.79 579.336 2140.67 581.533 2140.67 584.785V596H2137.68ZM2167.75 593.592C2171.45 593.592 2173.59 591.166 2173.59 587V570.635H2176.68V587.193C2176.68 593.029 2173.34 596.527 2167.75 596.527C2162.16 596.527 2158.82 593.029 2158.82 587.193V570.635H2161.92V587C2161.92 591.166 2164.06 593.592 2167.75 593.592ZM2181.32 589.25H2184.35C2184.66 592.027 2186.9 593.715 2190.27 593.715C2193.65 593.715 2195.86 591.957 2195.86 589.232C2195.86 587.035 2194.38 585.717 2190.96 584.873L2188.78 584.328C2184.07 583.133 2181.94 580.9 2181.94 577.227C2181.94 572.902 2185.19 570.107 2190.25 570.107C2195.04 570.107 2198.32 572.867 2198.53 577.086H2195.51C2195.19 574.467 2193.26 572.92 2190.27 572.92C2187.02 572.92 2185.07 574.467 2185.07 577.051C2185.07 579.248 2186.47 580.514 2189.78 581.34L2191.99 581.902C2196.92 583.115 2198.99 585.26 2198.99 589.074C2198.99 593.627 2195.56 596.527 2190.25 596.527C2185.02 596.527 2181.59 593.75 2181.32 589.25ZM2203.95 570.635H2211.05C2218.24 570.635 2221.86 574.871 2221.86 583.273C2221.86 591.746 2218.24 596 2211.05 596H2203.95V570.635ZM2207.06 573.482V593.152H2210.77C2216.15 593.152 2218.7 590.006 2218.7 583.291C2218.7 576.646 2216.13 573.482 2210.77 573.482H2207.06Z" fill="white"/>
</g>
<path id="PRIVATE" d="M276.372 1216H271.048V1185.2H286.272C293.092 1185.2 296.172 1187.58 296.172 1194.7V1196.16C296.172 1202.4 293.312 1205.53 286.272 1205.53H276.372V1216ZM285.348 1189.82H276.372V1200.95H285.392C289.66 1200.95 290.804 1199.41 290.804 1195.63V1195.06C290.804 1191.23 289.528 1189.82 285.348 1189.82ZM305.333 1216H300.009V1185.2H315.497C322.405 1185.2 325.133 1187.31 325.133 1193.16V1194.04C325.133 1198.71 323.725 1200.56 320.645 1201.13V1201.35C323.725 1201.92 325.133 1203.11 325.133 1208.3V1216H319.765V1208.87C319.765 1204.91 318.665 1203.99 314.221 1203.99H305.333V1216ZM314.045 1189.86H305.333V1199.32H314.705C318.533 1199.32 319.765 1198.18 319.765 1194.79V1194.48C319.765 1191.01 318.401 1189.86 314.045 1189.86ZM335.712 1216H330.388V1185.2H335.712V1216ZM358.065 1216H350.761L339.277 1185.2H345.305L354.369 1210.02H354.633L363.829 1185.2H369.549L358.065 1216ZM397.069 1216H391.085L388.181 1208.12H374.585L371.681 1216H365.961L377.445 1185.2H385.541L397.069 1216ZM381.317 1189.82L376.301 1203.42H386.509L381.537 1189.82H381.317ZM409.327 1216H403.959V1189.86H394.147V1185.2H419.227V1189.86H409.327V1216ZM444.684 1216H422.728V1185.2H444.684V1189.86H428.052V1198.22H444.684V1202.93H428.052V1211.34H444.684V1216Z" fill="#3D3D3D" fill-opacity="0.45"/>
<path id="PUBLIC" d="M1104.33 1216H1099.01V1185.2H1114.23C1121.05 1185.2 1124.13 1187.58 1124.13 1194.7V1196.16C1124.13 1202.4 1121.27 1205.53 1114.23 1205.53H1104.33V1216ZM1113.31 1189.82H1104.33V1200.95H1113.35C1117.62 1200.95 1118.76 1199.41 1118.76 1195.63V1195.06C1118.76 1191.23 1117.49 1189.82 1113.31 1189.82ZM1140.9 1216.44H1139.93C1131.18 1216.44 1127.57 1212.96 1127.57 1204.12V1185.2H1132.98V1203.68C1132.98 1209.22 1134.65 1211.47 1139.8 1211.47H1140.99C1146.14 1211.47 1147.81 1209.22 1147.81 1203.68V1185.2H1153.27V1204.12C1153.27 1212.96 1149.61 1216.44 1140.9 1216.44ZM1183.69 1207.99C1183.69 1213.58 1180.91 1216 1174.01 1216H1158.47V1185.2H1173.57C1180.61 1185.2 1183.29 1187.31 1183.29 1192.68V1193.43C1183.29 1197.56 1181.84 1199.5 1178.67 1199.94V1200.2C1182.06 1200.56 1183.69 1202.45 1183.69 1206.76V1207.99ZM1172.42 1189.86H1163.8V1198.14H1172.64C1176.65 1198.14 1177.92 1197.52 1177.92 1194.31V1194.09C1177.92 1190.88 1176.65 1189.86 1172.42 1189.86ZM1172.42 1202.45H1163.8V1211.34H1172.55C1176.95 1211.34 1178.27 1210.32 1178.27 1207.02V1206.67C1178.27 1203.06 1176.91 1202.45 1172.42 1202.45ZM1209.31 1216H1188.81V1185.2H1194.13V1211.34H1209.31V1216ZM1218.58 1216H1213.26V1185.2H1218.58V1216ZM1238.12 1216.44H1236.84C1227.52 1216.44 1223.69 1212.04 1223.69 1202.23V1198.97C1223.69 1189.2 1227.52 1184.76 1236.84 1184.76H1238.12C1245.86 1184.76 1249.52 1187.97 1250.92 1194.75H1245.42C1244.46 1191.1 1242.08 1189.6 1237.86 1189.6H1237.15C1230.6 1189.6 1229.1 1193.25 1229.1 1199.54V1201.66C1229.1 1207.95 1230.6 1211.6 1237.15 1211.6H1237.86C1242.08 1211.6 1244.46 1210.1 1245.42 1206.45H1250.92C1249.52 1213.23 1245.86 1216.44 1238.12 1216.44Z" fill="#3D3D3D" fill-opacity="0.45"/>
<path id="PRIVATE_2" d="M1986.37 1216H1981.05V1185.2H1996.27C2003.09 1185.2 2006.17 1187.58 2006.17 1194.7V1196.16C2006.17 1202.4 2003.31 1205.53 1996.27 1205.53H1986.37V1216ZM1995.35 1189.82H1986.37V1200.95H1995.39C1999.66 1200.95 2000.8 1199.41 2000.8 1195.63V1195.06C2000.8 1191.23 1999.53 1189.82 1995.35 1189.82ZM2015.33 1216H2010.01V1185.2H2025.5C2032.41 1185.2 2035.13 1187.31 2035.13 1193.16V1194.04C2035.13 1198.71 2033.73 1200.56 2030.65 1201.13V1201.35C2033.73 1201.92 2035.13 1203.11 2035.13 1208.3V1216H2029.77V1208.87C2029.77 1204.91 2028.67 1203.99 2024.22 1203.99H2015.33V1216ZM2024.05 1189.86H2015.33V1199.32H2024.71C2028.53 1199.32 2029.77 1198.18 2029.77 1194.79V1194.48C2029.77 1191.01 2028.4 1189.86 2024.05 1189.86ZM2045.71 1216H2040.39V1185.2H2045.71V1216ZM2068.07 1216H2060.76L2049.28 1185.2H2055.31L2064.37 1210.02H2064.63L2073.83 1185.2H2079.55L2068.07 1216ZM2107.07 1216H2101.08L2098.18 1208.12H2084.58L2081.68 1216H2075.96L2087.44 1185.2H2095.54L2107.07 1216ZM2091.32 1189.82L2086.3 1203.42H2096.51L2091.54 1189.82H2091.32ZM2119.33 1216H2113.96V1189.86H2104.15V1185.2H2129.23V1189.86H2119.33V1216ZM2154.68 1216H2132.73V1185.2H2154.68V1189.86H2138.05V1198.22H2154.68V1202.93H2138.05V1211.34H2154.68V1216Z" fill="#3D3D3D" fill-opacity="0.45"/>
<path id="Vector 9" opacity="0.6" d="M757 0L757 1350" stroke="#C6C6C6" stroke-width="3" stroke-dasharray="7 7"/>
<path id="Vector 10" opacity="0.6" d="M1606 0L1606 1350" stroke="#C6C6C6" stroke-width="3" stroke-dasharray="7 7"/>
</g>
</g>
</g>
<defs>
<clipPath id="clip0_967_2892">
<rect width="230" height="51" fill="white" transform="translate(1071.5 404)"/>
</clipPath>
</defs>
</svg>
